<?xml version="1.0" standalone="no"?>
<!DOCTYPE svg PUBLIC "-//W3C//DTD SVG 20010904//EN"
 "http://www.w3.org/TR/2001/REC-SVG-20010904/DTD/svg10.dtd">
<svg version="1.0" xmlns="http://www.w3.org/2000/svg"
 width="192.000000pt" height="192.000000pt" viewBox="0 0 192.000000 192.000000"
 preserveAspectRatio="xMidYMid meet">
<metadata>
Created by potrace 1.11, written by Peter Selinger 2001-2013
</metadata>
<g transform="translate(0.000000,192.000000) scale(0.100000,-0.100000)"
fill="#000000" stroke="none">
<path d="M877 1879 c-48 -5 -140 -18 -205 -28 -219 -37 -291 -36 -420 4 -21 7
-23 5 -16 -21 21 -89 87 -160 167 -179 50 -13 61 -51 65 -228 2 -87 1 -173 -2
-192 -9 -47 -51 -94 -108 -120 l-47 -22 39 -12 c54 -16 97 -55 110 -99 13 -50
13 -562 -1 -637 -6 -33 -19 -75 -29 -95 -19 -36 -70 -89 -105 -108 -24 -13
-29 -13 403 -15 206 -2 298 1 286 8 -56 33 -114 89 -133 128 -35 71 -41 143
-41 461 l0 299 60 -6 c76 -7 129 -33 155 -77 19 -33 20 -49 17 -300 -4 -302 4
-368 52 -456 39 -70 95 -117 171 -140 48 -15 63 -16 122 -5 71 13 229 82 273
119 l25 21 -40 1 c-70 0 -112 18 -150 62 -56 67 -65 112 -65 347 0 224 -10
312 -41 373 -28 56 -82 111 -133 138 l-44 24 41 20 c211 104 240 463 52 635
-62 56 -132 86 -233 101 -76 11 -101 11 -225 -1z m68 -208 c51 -23 101 -79
114 -128 27 -95 7 -257 -37 -306 -26 -30 -92 -57 -139 -57 l-43 0 0 248 c0
137 3 252 7 255 12 12 57 7 98 -12z"/>
</g>
</svg>
