<?xml version="1.0" standalone="no"?>
<!DOCTYPE svg PUBLIC "-//W3C//DTD SVG 20010904//EN"
 "http://www.w3.org/TR/2001/REC-SVG-20010904/DTD/svg10.dtd">
<svg version="1.0" xmlns="http://www.w3.org/2000/svg"
 width="260.000000pt" height="260.000000pt" viewBox="0 0 260.000000 260.000000"
 preserveAspectRatio="xMidYMid meet">
<metadata>
Created by potrace 1.11, written by Peter Selinger 2001-2013
</metadata>
<g transform="translate(0.000000,260.000000) scale(0.100000,-0.100000)"
fill="#000000" stroke="none">
<path d="M1180 2300 c-36 -5 -144 -21 -240 -36 -195 -30 -313 -29 -388 1 -24
10 -46 15 -49 11 -4 -3 1 -31 11 -62 22 -70 75 -125 147 -151 84 -31 89 -47
89 -281 0 -239 -5 -251 -116 -307 -44 -22 -47 -25 -26 -31 57 -17 108 -51 125
-84 16 -32 17 -67 15 -390 l-3 -355 -29 -63 c-28 -60 -57 -91 -132 -139 -15
-9 68 -12 385 -12 l403 -1 -61 41 c-66 44 -90 72 -124 146 -21 46 -22 63 -25
417 l-4 369 67 -6 c84 -8 134 -32 160 -77 19 -33 20 -54 22 -335 2 -351 5
-383 42 -462 38 -80 79 -123 148 -158 110 -56 234 -35 422 68 l94 52 -77 11
c-94 15 -134 42 -171 118 -36 74 -43 135 -44 396 0 248 -6 285 -61 369 -32 51
-71 86 -130 116 l-34 18 44 22 c136 70 210 246 182 432 -28 179 -119 289 -282
343 -75 25 -252 35 -360 20z m128 -247 c80 -65 110 -150 98 -283 -13 -135 -59
-199 -162 -220 -30 -6 -62 -9 -70 -6 -12 5 -14 47 -14 277 l1 271 55 -4 c41
-4 63 -12 92 -35z"/>
</g>
</svg>
